# xmcd
#
# Track frame offsets:
# 150
# 14777
# 23412
# 35340
# 47577
# 59437
# 74012
# 87102
# 99542
# 125072
# 141900
# 156330
# 176490
# 187130
# 204875
# 216237
# 227252
# 238395
#
# Disc length: 3374 seconds
#
#
# Revision: 0
# Processed by: cddbd v1.5.1PL2 Copyright (c) Steve Scherf et al.
# Submitted via: FreeRIP 2.944 
#
DISCID=040d2c12
DTITLE=Various Artist - The Old Style Love Song 2
DYEAR=1900
DGENRE=Oldies
TTITLE0=rain and tears
TTITLE1=a dear john letter
TTITLE2=the end of the world
TTITLE3=sealed with a kiss
TTITLE4=let it be me
TTITLE5=el condor pasa
TTITLE6=please mr postman
TTITLE7=yellow river
TTITLE8=you're my everything
TTITLE9=feelings
TTITLE10=i don't like to sleep alone
TTITLE11=kiss and say goodbye
TTITLE12=diana
TTITLE13=vincent
TTITLE14=the wedding
TTITLE15=yellow bird
TTITLE16=only the lonely
TTITLE17=sad movies
EXTD=
EXTT0=
EXTT1=
EXTT2=
EXTT3=
EXTT4=
EXTT5=
EXTT6=
EXTT7=
EXTT8=
EXTT9=
EXTT10=
EXTT11=
EXTT12=
EXTT13=
EXTT14=
EXTT15=
EXTT16=
EXTT17=
PLAYORDER=
